<?xml version="1.0" encoding="UTF-8" standalone="no"?>
<!-- Created with Inkscape (http://www.inkscape.org/) -->

<svg
   width="19.723198mm"
   height="19.7232mm"
   viewBox="0 0 19.723198 19.7232"
   version="1.1"
   id="svg1"
   xml:space="preserve"
   xmlns="http://www.w3.org/2000/svg"
   xmlns:svg="http://www.w3.org/2000/svg"><defs
     id="defs1" /><g
     id="layer1"
     transform="translate(-132.88315,-118.75904)"><g
       id="g40"
       transform="matrix(1.3008572,0,0,1.3008572,-250.35281,-51.30023)"
       style="display:inline;opacity:1"><g
         id="g13"
         style="display:inline"
         transform="matrix(1.4711536,0,0,1.449571,-67.020743,-20.967184)"><path
           style="display:inline;fill:#ffffff;fill-opacity:1;stroke:none;stroke-width:0.0318896;stroke-linecap:round"
           id="path12"
           width="60.402634"
           height="60.402634"
           x="158.58838"
           y="501.68063"
           rx="4.6031165"
           ry="4.6031165"
           d="m 246.91527,104.70885 c -0.60074,0 -1.08724,0.49554 -1.08724,1.10742 v 8.24449 c 0,0.61189 0.4865,1.10742 1.08724,1.10742 h 8.09424 c 0.60074,0 1.08694,-0.49572 1.08694,-1.10742 v -8.24449 c 0,-0.6117 -0.4862,-1.10742 -1.08694,-1.10742 z" /></g><path
         d="m 295.16338,140.76821 v 0.0217 1.03353 2.58486 c 0,0.57529 0.46312,1.0393 1.04335,1.05368 l 5.99757,-0.009 5.99756,0.009 c 0.58024,-0.0144 1.04335,-0.47839 1.04335,-1.05368 v -2.58486 -1.03353 -0.0217 l -1.04335,0.002 -5.99756,0.009 -5.99757,-0.009 z"
         style="display:inline;stroke-width:0.0461428;stroke-linecap:round"
         id="path15" /><g
         id="g24"
         transform="matrix(1.6022463,0,0,1.5787405,-99.912198,-35.501537)"
         style="display:inline"><g
           id="g23"
           transform="translate(0,-0.09631501)"><path
             d="m 138.48035,109.78439 -0.0625,4e-4 -0.17403,6e-4 c -0.0293,-6e-4 -0.0312,6.1e-4 -0.0592,1.7e-4 l -0.47728,0.0108 -0.0508,10e-4 -0.49478,2.31294 0.48033,0.004 c 0.0753,8.1e-4 0.13686,-4e-4 0.18734,-0.003 l 0.28658,-1.21933 0.44325,1.22373 0.16814,10e-4 0.16814,-10e-4 0.44317,-1.22373 0.28659,1.21933 c 0.0281,0.001 0.0597,0.002 0.0952,0.003 h 0.0858 0.006 l 0.46811,-0.004 -0.48256,-2.31297 -0.0507,-0.001 -0.47743,-0.0108 c -0.0225,4.1e-4 -0.0189,-10e-4 -0.0422,-4e-4 h -8e-5 c -0.006,1.2e-4 -0.0112,1.6e-4 -0.0168,4e-4 l -0.17395,-6e-4 -0.0625,-4e-4 -0.24713,0.71293 z"
             style="display:inline;fill:#ffffff;fill-opacity:1;stroke-width:0.168465;stroke-linecap:round"
             id="path17"
             transform="matrix(0.61000709,0,0,0.61000709,163.19605,45.552437)" /><path
             d="m 150.50368,109.79286 -0.39482,0.002 h -0.30137 l -0.40243,0.85378 -0.40482,-0.85378 h -0.29907 c -0.20871,0 -0.39813,-6e-4 -0.39813,-6e-4 0,0 0.11985,0.30544 0.24351,0.59758 0.12366,0.29214 0.22482,0.55477 0.22482,0.58361 0,0.0288 -0.092,0.25156 -0.20444,0.49497 -0.11241,0.24341 -0.28478,0.66159 -0.28478,0.66159 h 0.73975 l 0.38197,-1.00017 0.40481,1.00017 h 0.74457 c 0,0 -0.17232,-0.39902 -0.31024,-0.69222 -0.0983,-0.20887 -0.18086,-0.40215 -0.20012,-0.46646 -0.003,-0.009 -0.004,-0.0159 -0.004,-0.0196 0,-0.0283 0.10116,-0.28604 0.22482,-0.57287 0.10151,-0.23545 0.18792,-0.44073 0.2156,-0.51943 0.006,-0.0172 0.0246,-0.0679 0.0246,-0.0679 z"
             style="display:inline;fill:#ffffff;fill-opacity:1;stroke-width:0.151317"
             id="path18"
             transform="matrix(0.61000709,0,0,0.61000709,163.19605,45.552437)" /><path
             d="m 143.72654,111.17985 v -0.95273 h 0.23818 0.23818 v -0.21653 -0.21653 h -0.88777 -0.88777 v 0.21437 0.21437 l 0.24901,4e-4 0.24901,0.0104 0.0117,0.9571 0.0117,0.9419 h 0.38891 0.3889 z"
             style="display:inline;fill:#ffffff;fill-opacity:1;stroke-width:0.163675"
             id="path19"
             transform="matrix(0.61000709,0,0,0.61000709,163.19605,45.552437)" /><path
             d="m 141.32302,112.10826 c 0,-0.005 0.0114,-0.0988 0.0239,-0.20829 l 0.0236,-0.19922 0.15004,-0.003 c 0.0825,-8.6e-4 0.15019,-8.6e-4 0.15034,0 1.6e-4,8.7e-4 0.009,0.0942 0.0206,0.20685 0.0114,0.11269 0.0222,0.20645 0.0238,0.20835 0.003,8.7e-4 0.19084,0.003 0.41991,8.7e-4 l 0.41643,-8.7e-4 -0.23381,-1.15916 c -0.12861,-0.63754 -0.23399,-1.16161 -0.23417,-1.16461 0,-0.003 -0.26733,-0.005 -0.59366,-0.005 h -0.59327 l -0.003,0.0236 c -0.003,0.0129 -0.0956,0.53051 -0.20726,1.15011 -0.11168,0.61961 -0.20467,1.13391 -0.20675,1.14287 l -0.003,0.0164 h 0.42395 c 0.33414,0 0.42404,-8.6e-4 0.42434,-0.009 z m 0.043,-0.83412 c 0,-0.0675 0.1428,-0.93896 0.15612,-0.95257 0.005,-0.005 0.0101,0.0301 0.025,0.1729 0.02,0.18655 0.053,0.45004 0.0798,0.63482 0.0127,0.0822 0.0215,0.15222 0.0215,0.15573 0,0.003 -0.0636,0.006 -0.14126,0.006 h -0.1413 z"
             style="display:inline;fill:#ffffff;fill-opacity:1;stroke-width:0.202928"
             id="path20"
             transform="matrix(0.61000709,0,0,0.61000709,163.19605,45.552437)" /><path
             d="m 251.34053,112.51715 v 0.88674 0.55023 h 0.16192 0.26644 l 1.1e-4,-0.30575 c 0,-0.028 1.1e-4,-0.046 1.1e-4,-0.0718 1.2e-4,-0.0636 5.2e-4,-0.12421 0.002,-0.1638 h 0.0899 c 0.019,0.0562 0.0463,0.13977 0.0782,0.23748 l 0.0989,0.30385 h 0.10769 0.14836 c 0.0828,3e-5 0.15332,-2.4e-4 0.20022,-0.002 0.0329,-5.1e-4 0.0561,-0.002 0.0561,-0.003 0,-0.002 -0.0176,-0.0477 -0.0391,-0.10147 -0.0852,-0.2127 -0.13711,-0.34342 -0.17736,-0.44526 -0.014,-0.0352 -0.0279,-0.0696 -0.0378,-0.095 0.0589,-0.0457 0.10398,-0.10743 0.13029,-0.18593 0.0167,-0.0499 0.0258,-0.10653 0.0258,-0.17028 0,-0.0659 -0.009,-0.12293 -0.0258,-0.17189 -0.0672,-0.19527 -0.25792,-0.26338 -0.48712,-0.26338 h -0.17017 -0.26616 z"
             style="font-weight:bold;font-size:18.0351px;font-family:'Noto Sans Mono CJK JP';-inkscape-font-specification:'Noto Sans Mono CJK JP, Bold';baseline-shift:baseline;display:inline;overflow:visible;vector-effect:none;fill:#ffffff;stroke-width:0.11539;stroke-linecap:round;stroke-linejoin:round;paint-order:stroke markers fill;enable-background:accumulate;stop-color:#000000"
             id="path22" /><g
             id="g22"
             style="display:inline"
             transform="matrix(0.61000709,0,0,0.61000709,173.6,44.057395)" /><path
             d="m 252.63498,112.5397 v 0.0902 0.17402 h 0.12484 l 0.0476,0.002 h 0.0293 v 0.002 l 0.006,0.43721 0.006,0.44005 H 252.635 v 0.2667 h 0.88989 v -0.10245 -0.16425 h -0.20049 v -0.44667 -0.43216 h 0.081 0.11947 v -0.17528 -0.0914 z"
             style="font-weight:bold;font-size:18.0351px;font-family:'Noto Sans Mono CJK JP';-inkscape-font-specification:'Noto Sans Mono CJK JP, Bold';baseline-shift:baseline;display:inline;overflow:visible;vector-effect:none;fill:#ffffff;stroke-width:0.11487;stroke-linecap:round;stroke-linejoin:round;paint-order:stroke markers fill;enable-background:accumulate;stop-color:#000000"
             id="path23" /></g><path
           style="display:inline;fill:#e6e6e6;fill-opacity:1;stroke:none;stroke-width:0.0206006;stroke-linecap:round"
           id="path24"
           width="60.402634"
           height="60.402634"
           x="158.58838"
           y="501.68063"
           rx="4.6031165"
           ry="4.6031165"
           d="m 247.56813,105.70178 c 0,0 -0.47538,0.27472 -0.47538,0.61396 v 4.57081 c 0,0.33924 0.44254,0.61396 0.44254,0.61396 l 6.7914,-0.0537 0.49522,-0.56028 v -4.57081 c 0,-0.18554 0.0479,-0.55507 -0.12534,-0.66764 0,0 -0.48438,0.008 -0.68916,0.009 z" /></g><g
         id="g30"
         transform="matrix(1.4711536,0,0,1.449571,-67.177271,-20.582193)"><path
           d="m 252.13546,106.16461 c -0.77895,-0.008 -1.52919,0.44236 -1.89549,1.12861 -0.4229,0.75692 -0.32049,1.76372 0.24856,2.41846 0.52458,0.63662 1.43383,0.91757 2.22467,0.68419 0.031,-0.009 0.0602,-0.029 0.0925,-0.03 0.0289,-0.001 0.0557,0.0142 0.0837,0.0212 0.39116,0.0996 0.78243,0.1996 1.17357,0.2992 0.14787,0.0731 0.37061,0.0134 0.32711,-0.19482 -0.098,-0.38308 -0.21232,-0.76305 -0.31781,-1.14463 -0.005,-0.0192 -0.0175,-0.0376 -0.0155,-0.0574 0.002,-0.0248 0.0225,-0.0442 0.0331,-0.0667 0.25127,-0.53356 0.26877,-1.17191 0.0424,-1.71721 -0.31458,-0.79593 -1.14003,-1.3532 -1.99678,-1.341 z"
           style="display:inline;stroke-width:1.37179;stroke-linecap:round;stroke-linejoin:round;paint-order:stroke markers fill"
           id="path25" /><path
           d="m 252.13184,106.56613 c -0.62194,-0.006 -1.24456,0.36617 -1.53789,0.91571 l -0.002,0.004 -0.002,0.003 c -0.16772,0.30021 -0.23441,0.6602 -0.19843,1.0113 0.036,0.35111 0.1745,0.68884 0.39997,0.94827 l 0.003,0.004 0.004,0.004 c 0.41662,0.50558 1.17407,0.73947 1.80092,0.55448 -0.0306,0.009 0.0876,-0.0434 0.19327,-0.0465 0.1104,-0.003 0.22333,0.0406 0.19586,0.0336 0.30535,0.0777 0.61041,0.15579 0.9157,0.23358 -0.0709,-0.25557 -0.14629,-0.51434 -0.2191,-0.77773 0.0109,0.0395 -0.0396,-0.0854 -0.0284,-0.20257 0.0131,-0.13711 0.091,-0.24563 0.0692,-0.19947 0.20176,-0.42839 0.2162,-0.95552 0.0351,-1.39165 l -0.002,-0.004 -0.001,-0.003 c -0.12497,-0.31616 -0.35635,-0.59354 -0.64544,-0.78806 -0.2891,-0.19453 -0.63254,-0.30403 -0.97204,-0.29921 l -0.005,5.2e-4 z"
           style="display:inline;fill:#ffffff;fill-opacity:1;stroke-width:8.67675;stroke-linecap:round;stroke-linejoin:round;paint-order:stroke markers fill"
           id="path26" /><g
           id="g29"><path
             style="display:inline;fill:#717171;fill-opacity:1;stroke:#000000;stroke-width:0.347829;stroke-linecap:square;stroke-linejoin:miter;stroke-dasharray:none;stroke-dashoffset:0;stroke-opacity:1;paint-order:stroke markers fill"
             d="m 251.39393,107.59497 h 1.45425"
             id="path27" /><path
             style="display:inline;fill:#717171;fill-opacity:1;stroke:#000000;stroke-width:0.347829;stroke-linecap:square;stroke-linejoin:miter;stroke-dasharray:none;stroke-dashoffset:0;stroke-opacity:1;paint-order:stroke markers fill"
             d="m 250.94124,108.43841 h 2.4013"
             id="path28" /><path
             style="display:inline;fill:#717171;fill-opacity:1;stroke:#000000;stroke-width:0.347829;stroke-linecap:square;stroke-linejoin:miter;stroke-dasharray:none;stroke-dashoffset:0;stroke-opacity:1;paint-order:stroke markers fill"
             d="m 251.42259,109.19938 h 1.41133"
             id="path29" /></g></g><g
         id="g34"
         transform="matrix(1.4711536,0,0,1.449571,-67.203516,-20.852485)"><path
           d="m 249.76088,105.3802 c -0.85675,-0.0122 -1.68187,0.545 -1.99646,1.34093 -0.22638,0.5453 -0.20887,1.18337 0.0424,1.71693 0.0106,0.0225 0.0307,0.0421 0.033,0.0669 0.002,0.0198 -0.0105,0.0383 -0.0158,0.0575 -0.10549,0.38157 -0.21955,0.76139 -0.31753,1.14447 -0.0435,0.20825 0.17927,0.2678 0.32714,0.19466 0.39114,-0.0996 0.78225,-0.19939 1.17341,-0.29896 0.028,-0.007 0.055,-0.0223 0.0839,-0.0213 0.0323,9.5e-4 0.0614,0.0207 0.0924,0.0298 0.79084,0.23338 1.69991,-0.0473 2.22448,-0.68392 0.56905,-0.65474 0.67158,-1.66179 0.24868,-2.41871 -0.36629,-0.68625 -1.11664,-1.13579 -1.89559,-1.12823 z"
           style="display:inline;fill:#000000;stroke-width:1.37179;stroke-linecap:round;stroke-linejoin:round;paint-order:stroke markers fill"
           id="path30" /><g
           id="g33"
           transform="translate(0.02248094,0.29660355)"><path
             style="display:inline;fill:#ffffff;fill-opacity:1;stroke:#ffffff;stroke-width:0.347829;stroke-linecap:square;stroke-linejoin:miter;stroke-dasharray:none;stroke-dashoffset:0;stroke-opacity:1;paint-order:stroke markers fill"
             d="m 249.00665,106.44537 h 1.45425"
             id="path31" /><path
             style="fill:#ffffff;fill-opacity:1;stroke:#ffffff;stroke-width:0.347829;stroke-linecap:square;stroke-linejoin:miter;stroke-dasharray:none;stroke-dashoffset:0;stroke-opacity:1;paint-order:stroke markers fill"
             d="m 248.55396,107.28882 h 2.4013"
             id="path32" /><path
             style="fill:#ffffff;fill-opacity:1;stroke:#ffffff;stroke-width:0.347829;stroke-linecap:square;stroke-linejoin:miter;stroke-dasharray:none;stroke-dashoffset:0;stroke-opacity:1;paint-order:stroke markers fill"
             d="m 249.03531,108.04979 h 1.41132"
             id="path33" /></g></g><g
         id="g35"
         transform="matrix(1.4711536,0,0,1.449571,-67.020743,-20.967184)"><path
           d="m 254.57635,105.03562 v 0.63414 h 0.10388 c 0.272,0 0.49096,0.2536 0.49096,0.56887 v 3.90942 c 0,0.31527 -0.21896,0.56887 -0.49096,0.56887 h -0.10388 v 0.63414 h 0.45833 c 0.40317,0 0.72784,-0.32467 0.72784,-0.72784 v -4.85976 c 0,-0.40317 -0.32467,-0.72784 -0.72784,-0.72784 z"
           style="stroke-width:0.0315977;stroke-linecap:round"
           id="path34" /><path
           d="m 247.37672,105.09408 v 0.63415 h -0.10388 c -0.27199,0 -0.49095,0.2536 -0.49095,0.56886 v 3.90943 c 0,0.31526 0.21896,0.56887 0.49095,0.56887 h 0.10388 v 0.63414 h -0.45832 c -0.40317,0 -0.72784,-0.32467 -0.72784,-0.72784 v -4.85976 c 0,-0.40318 0.32467,-0.72785 0.72784,-0.72785 z"
           style="stroke-width:0.0315977;stroke-linecap:round"
           id="path35" /></g><path
         d="m 251.78764,112.84618 h 0.002 0.14392 0.0924 c 0.0716,0 0.12383,0.0157 0.15118,0.0382 0.013,0.013 0.0229,0.0278 0.0298,0.0486 0.005,0.016 0.009,0.0374 0.009,0.063 -1.2e-4,0.0253 -0.003,0.0452 -0.009,0.0608 -0.007,0.0195 -0.0158,0.0342 -0.0278,0.0468 l -5.5e-4,5.6e-4 c -0.0269,0.0238 -0.0794,0.04 -0.15262,0.04 h -0.0924 -0.14391 -0.002 z"
         style="font-weight:bold;font-size:18.0351px;font-family:'Noto Sans Mono CJK JP';-inkscape-font-specification:'Noto Sans Mono CJK JP, Bold';baseline-shift:baseline;display:inline;overflow:visible;vector-effect:none;fill:#ffffff;fill-opacity:1;stroke-width:0.125672;stroke-linecap:round;stroke-linejoin:round;paint-order:stroke markers fill;enable-background:accumulate;stop-color:#000000"
         id="path36"
         transform="matrix(1.4711536,0,0,1.449571,-67.009183,-20.989402)" /><path
         style="fill:#ffffff;fill-opacity:1;stroke:#ffffff;stroke-width:0.0202589;stroke-linecap:round;paint-order:stroke markers fill"
         d="m 303.46297,142.66364 8e-4,0.27623"
         id="path37" /><path
         style="fill:#ffffff;fill-opacity:1;stroke:#ffffff;stroke-width:0.0202589;stroke-linecap:round;paint-order:stroke markers fill"
         d="m 303.4091,142.71171 3e-5,0.19532"
         id="path38" /><path
         d="m 251.78764,112.84618 h 0.002 0.14392 0.0924 c 0.0716,0 0.12383,0.0157 0.15118,0.0382 0.013,0.013 0.0229,0.0278 0.0298,0.0486 0.005,0.016 0.009,0.0374 0.009,0.063 -1.2e-4,0.0253 -0.003,0.0452 -0.009,0.0608 -0.007,0.0195 -0.0158,0.0342 -0.0278,0.0468 l -5.5e-4,5.6e-4 c -0.0269,0.0238 -0.0794,0.04 -0.15262,0.04 h -0.0924 -0.14391 -0.002 z"
         style="font-weight:bold;font-size:18.0351px;font-family:'Noto Sans Mono CJK JP';-inkscape-font-specification:'Noto Sans Mono CJK JP, Bold';baseline-shift:baseline;display:inline;overflow:visible;vector-effect:none;fill:#000000;fill-opacity:1;stroke-width:0.125672;stroke-linecap:round;stroke-linejoin:round;paint-order:stroke markers fill;enable-background:accumulate;stop-color:#000000"
         id="path39"
         transform="matrix(1.1996073,0,0,1.8838821,1.3442066,-70.170493)" /><path
         style="fill:#000000;fill-opacity:1;stroke:none;stroke-width:0.268237;stroke-linecap:round;stroke-opacity:1;paint-order:stroke markers fill"
         d="m 304.64598,144.2472 h 2.46293"
         id="path40" /></g><rect
       style="display:none;opacity:0.25;fill:none;fill-opacity:1;stroke:#808080;stroke-width:0.22664;stroke-linejoin:round;stroke-dasharray:none;stroke-opacity:1;paint-order:normal"
       id="rect45"
       width="19.496553"
       height="19.496553"
       x="132.96761"
       y="118.79397" /><rect
       style="fill:none;fill-opacity:1;stroke:#ff0000;stroke-width:0.208453;stroke-linejoin:round;stroke-dasharray:none;stroke-opacity:1;paint-order:normal"
       id="rect46"
       width="21.697348"
       height="21.74893"
       x="131.89607"
       y="117.74616" /><rect
       style="opacity:0;fill:none;fill-opacity:1;stroke:#808080;stroke-width:0.22664;stroke-linejoin:round;stroke-dasharray:none;stroke-opacity:1;paint-order:normal"
       id="rect1"
       width="19.496553"
       height="19.496553"
       x="132.99648"
       y="118.87235" /></g></svg>
